<svg xmlns="http://www.w3.org/2000/svg" width="35" height="35" viewBox="0 0 35.000246 34.999919"><path fill="#fff" fill-opacity=".5" d="M33.12 34.9c-.18-.05-.33-.12-.5-.22-.12-.1-5.7-5.66-5.77-5.78-.02-.03-.05-.06-.06-.06s-.15.1-.3.22c-3.36 2.7-7.63 3.92-11.98 3.46-4.23-.46-8.1-2.56-10.85-5.9C1.7 24.24.47 21.3.1 18.2c-.1-.7-.1-1-.1-1.9 0-.9 0-1.2.1-1.87.38-3.4 1.8-6.56 4.08-9.08.5-.56 1.2-1.23 1.77-1.7.52-.42 1.36-1.02 1.94-1.37C9.82 1.1 11.97.36 14.25.08c.76-.1 1.03-.12 2.07-.12 1.04 0 1.28.02 2.06.1 2.4.3 4.68 1.14 6.73 2.45 1.83 1.18 3.48 2.8 4.7 4.6 1.3 1.9 2.2 4.14 2.6 6.42.17 1.03.2 1.6.2 2.73.02.96 0 1.2-.1 1.96-.34 3.04-1.52 5.9-3.43 8.28-.12.16-.22.3-.22.3s.04 0 .07.04c.1.06 5.68 5.64 5.77 5.77.32.44.37 1.02.13 1.52-.16.32-.37.54-.7.7-.1.04-.24.1-.32.1-.2.06-.53.05-.7 0zm-15.7-5.34c1.33-.12 2.55-.4 3.72-.86 3.64-1.4 6.53-4.4 7.78-8.1 1.05-3.08.96-6.38-.26-9.4-1.34-3.27-4.02-5.94-7.3-7.3-3.5-1.4-7.5-1.27-10.87.38-2.45 1.2-4.5 3.14-5.83 5.5-.9 1.65-1.45 3.42-1.62 5.33-.06.66-.06 1.68 0 2.34.32 3.54 2 6.74 4.7 9.02 2.2 1.86 4.84 2.92 7.74 3.12.33.02 1.6 0 1.9-.02zM15.6 19.4v-2.67h-5.36v-1.9H15.64V9.47h1.9v5.36h5.4v1.9h-5.4v5.34h-1.93V19.4z"/></svg>