<svg xmlns:rdf="http://www.w3.org/1999/02/22-rdf-syntax-ns#" xmlns="http://www.w3.org/2000/svg" height="35" width="35" version="1.1" xmlns:cc="http://creativecommons.org/ns#" xmlns:dc="http://purl.org/dc/elements/1.1/" viewBox="0 0 35.000246 34.999919">
 <g fill-opacity=".5" fill="#fff" transform="translate(-.00032 -1017.4)">
  <path fill-opacity=".5" fill="#fff" d="m33.122 1052.3c-0.18261-0.048-0.33653-0.1183-0.4873-0.2214-0.13807-0.095-5.7138-5.6615-5.7827-5.7736-0.02297-0.037-0.05001-0.069-0.0601-0.069s-0.14571 0.1021-0.30138 0.2268c-3.3537 2.6879-7.6221 3.9198-11.966 3.4537-4.2355-0.4546-8.1062-2.5566-10.852-5.8931-1.9619-2.3842-3.2124-5.3332-3.5722-8.4242-0.087276-0.7-0.1-1-0.1-1.9 0-0.9079 0.014479-1.2065 0.090709-1.8707 0.39071-3.404 1.814-6.5628 4.0928-9.0832 0.49883-0.5517 1.207-1.2301 1.7674-1.6931 0.51593-0.4263 1.3601-1.0241 1.9373-1.3719 1.9464-1.173 4.094-1.9167 6.3681-2.2054 0.76082-0.097 1.0362-0.1112 2.0763-0.1107 1.0392 0.0006 1.2734 0.013 2.0565 0.1106 2.4006 0.299 4.693 1.1283 6.7455 2.4401 1.8207 1.1637 3.4751 2.7717 4.7029 4.5711 1.3047 1.912 2.2042 4.1494 2.5886 6.4389 0.17247 1.0272 0.21721 1.5854 0.21835 2.7243 0.000974 0.9654-0.01078 1.1967-0.09963 1.9606-0.35203 3.0275-1.5375 5.8754-3.442 8.2689-0.12515 0.1573-0.2242 0.2884-0.22012 0.2914 0.0041 0 0.0364 0.023 0.07181 0.045 0.10138 0.062 5.6789 5.6454 5.7689 5.7745 0.31656 0.4544 0.36505 1.0334 0.12778 1.5259-0.15683 0.3255-0.37345 0.5435-0.6957 0.7-0.09835 0.048-0.24318 0.1012-0.32183 0.1186-0.19612 0.043-0.53264 0.04-0.71137-0.01zm-15.707-5.3428c1.3325-0.1219 2.5536-0.4021 3.7226-0.8543 3.6461-1.4104 6.5292-4.409 7.7871-8.0989 1.0498-3.0795 0.95499-6.3878-0.26915-9.3933-1.3381-3.2851-4.0115-5.955-7.3057-7.296-3.4898-1.4205-7.478-1.2874-10.862 0.3628-2.4373 1.1883-4.5005 3.1451-5.813 5.5127-0.90725 1.6367-1.4503 3.4132-1.625 5.3162-0.06018 0.6554-0.060244 1.6732-0.0001987 2.3322 0.32279 3.54 1.9857 6.7393 4.6892 9.0217 2.1981 1.8556 4.8482 2.9211 7.749 3.1158 0.34418 0.023 1.6039 0.011 1.9273-0.019zm-1.7882-10.154v-2.6711h-2.6824-2.6824v-0.9503-0.9503h2.6824 2.6824v-2.6809-2.681h0.96366 0.96366v2.681 2.6809h2.6923 2.6923v0.9503 0.9503h-2.6923-2.6923v2.6711 2.6708h-0.96366-0.96366v-2.6708z"/>
 </g>
</svg>
